<svg width="35" height="35" viewBox="0 0 35 35" fill="none" xmlns="http://www.w3.org/2000/svg">
<rect x="0.5" y="0.550049" width="34" height="34" rx="17" fill="#109810"/>
<path d="M16.2711 12.6542L13.3955 9.33492C13.064 8.95242 12.4563 8.95412 12.0712 9.34002L9.70655 11.709C9.00275 12.4136 8.8013 13.46 9.20845 14.2989C11.6408 19.3351 15.7025 23.4025 20.7353 25.8419C21.5734 26.2491 22.6189 26.0476 23.3227 25.343L25.7095 22.9519C26.0962 22.5652 26.0971 21.954 25.7112 21.6225L22.3792 18.7623C22.0307 18.4631 21.4892 18.5022 21.1399 18.8524L19.9805 20.0135C19.9211 20.0757 19.843 20.1167 19.7581 20.1302C19.6732 20.1437 19.5862 20.129 19.5104 20.0883C17.6153 18.997 16.0433 17.4229 14.9544 15.5263C14.9137 15.4505 14.8989 15.3633 14.9124 15.2783C14.9259 15.1932 14.967 15.1149 15.0292 15.0554L16.1852 13.8986C16.5354 13.5467 16.5737 13.0027 16.2711 12.6533V12.6542Z" stroke="white" stroke-width="1.275" stroke-linecap="round" stroke-linejoin="round"/>
</svg>
